<svg width="30" height="25" viewBox="0 0 30 25" fill="none" xmlns="http://www.w3.org/2000/svg">
<path d="M30 3.41497V22.7271C30 23.9823 29.085 24.9986 27.955 24.9986H23.1813V12.1248L15 18.9421L6.81875 12.1248V25H2.045C1.77634 25 1.51032 24.9412 1.26212 24.827C1.01393 24.7127 0.788437 24.5453 0.598525 24.3342C0.408613 24.1231 0.258005 23.8725 0.155308 23.5968C0.0526105 23.321 -0.000163835 23.0255 3.82064e-07 22.7271V3.41497C3.82064e-07 0.606107 2.88625 -0.997567 4.90875 0.688026L6.81875 2.28059L15 9.09517L23.1813 2.27782L25.0912 0.688026C27.1125 -0.996179 30 0.606107 30 3.41497Z" fill="#228B22"/>
</svg>
