<svg width="40" height="40" viewBox="0 0 40 40" fill="none" xmlns="http://www.w3.org/2000/svg">
<path d="M37.0492 0.000151475H2.95082C2.17715 -0.00772217 1.43196 0.291639 0.87875 0.832548C0.325544 1.37346 0.00951189 2.11173 0 2.88538V37.1212C0.0112321 37.8937 0.32802 38.6303 0.881039 39.1698C1.43406 39.7093 2.17827 40.0077 2.95082 39.9999H37.0492C37.8229 40.006 38.5676 39.7056 39.1205 39.1644C39.6734 38.6231 39.9896 37.885 40 37.1113V2.87554C39.9862 2.10416 39.6685 1.36941 39.1159 0.830984C38.5634 0.292558 37.8207 -0.00601951 37.0492 0.000151475Z" fill="#0076B2"/>
<path d="M5.92129 14.9935H11.859V34.0983H5.92129V14.9935ZM8.89178 5.48535C9.57281 5.48535 10.2385 5.68734 10.8047 6.06576C11.3709 6.44418 11.8122 6.98204 12.0727 7.61128C12.3331 8.24053 12.4011 8.93288 12.268 9.60077C12.1349 10.2687 11.8067 10.8821 11.3249 11.3634C10.8431 11.8447 10.2294 12.1723 9.56139 12.3048C8.89337 12.4373 8.20107 12.3686 7.57207 12.1076C6.94307 11.8465 6.40564 11.4047 6.02775 10.8382C5.64987 10.2716 5.44851 9.60569 5.44916 8.92467C5.45003 8.0122 5.81312 7.13741 6.45864 6.49251C7.10416 5.8476 7.97931 5.48535 8.89178 5.48535ZM15.5836 14.9935H21.2754V17.6164H21.3541C22.1475 16.1148 24.0819 14.5312 26.9705 14.5312C32.9836 14.5181 34.0983 18.4754 34.0983 23.6065V34.0983H28.1606V24.8032C28.1606 22.5901 28.1213 19.741 25.0754 19.741C22.0295 19.741 21.5115 22.1541 21.5115 24.659V34.0983H15.5836V14.9935Z" fill="white"/>
</svg>
